<?xml version="1.0" encoding="utf-8"?>
<svg xmlns="http://www.w3.org/2000/svg" width="277" height="301" fill="none">
  <path fill="#C8DBD4" d="M0 38C0 17.013 17.013 0 38 0h201c20.987 0 38 17.013 38 38v225c0 20.987-17.013 38-38 38H38c-20.987 0-38-17.013-38-38V38Z"/>
  <path fill="#141414" d="M157.662 163.208c3.296 0 6.032.96 8.208 2.88 2.208 1.92 3.312 4.64 3.312 8.16 0 3.648-1.184 6.48-3.552 8.496-2.368 1.984-5.312 2.976-8.832 2.976-2.944 0-5.504-.624-7.68-1.872-2.176-1.28-3.76-3.184-4.752-5.712l7.488-4.272c.704 2.336 2.352 3.504 4.944 3.504 1.216 0 2.144-.272 2.784-.816.672-.576 1.008-1.344 1.008-2.304 0-.992-.336-1.76-1.008-2.304-.64-.544-1.52-.816-2.64-.816H146.19l1.392-19.728h19.776v8.208h-11.856l-.24 3.6h2.4Zm36.234 17.76c-2.432 3.168-5.84 4.752-10.224 4.752s-7.808-1.584-10.272-4.752c-2.432-3.2-3.648-7.456-3.648-12.768s1.216-9.552 3.648-12.72c2.464-3.2 5.888-4.8 10.272-4.8s7.792 1.6 10.224 4.8c2.464 3.168 3.696 7.408 3.696 12.72s-1.232 9.568-3.696 12.768ZM178.344 168.2c0 6.112 1.776 9.168 5.328 9.168 3.552 0 5.328-3.056 5.328-9.168 0-6.112-1.776-9.168-5.328-9.168-3.552 0-5.328 3.056-5.328 9.168Zm44.346 12.768c-2.432 3.168-5.84 4.752-10.224 4.752s-7.808-1.584-10.272-4.752c-2.432-3.2-3.648-7.456-3.648-12.768s1.216-9.552 3.648-12.72c2.464-3.2 5.888-4.8 10.272-4.8s7.792 1.6 10.224 4.8c2.464 3.168 3.696 7.408 3.696 12.72s-1.232 9.568-3.696 12.768ZM207.138 168.2c0 6.112 1.776 9.168 5.328 9.168 3.552 0 5.328-3.056 5.328-9.168 0-6.112-1.776-9.168-5.328-9.168-3.552 0-5.328 3.056-5.328 9.168Zm43.915-3.792v7.584h-7.68v7.68h-7.584v-7.68h-7.68v-7.584h7.68v-7.68h7.584v7.68h7.68ZM69.865 207.76c1.12 0 2.02.36 2.7 1.08.693.72 1.04 1.693 1.04 2.92V218h-1.32v-6.24c0-.867-.227-1.533-.68-2-.44-.48-1.027-.72-1.76-.72-.827 0-1.5.28-2.02.84-.507.547-.76 1.407-.76 2.58V218h-1.32v-6.24c0-.88-.214-1.553-.64-2.02-.414-.467-.98-.7-1.7-.7-.8 0-1.48.28-2.04.84-.56.56-.84 1.42-.84 2.58V218h-1.32v-10h1.32v1.46c.72-1.133 1.74-1.7 3.06-1.7 1.44 0 2.453.607 3.04 1.82.72-1.213 1.8-1.82 3.24-1.82Zm10.913 0c1.48 0 2.673.527 3.58 1.58.92 1.04 1.38 2.273 1.38 3.7 0 .147-.013.353-.04.62h-8.78c.133 1.013.56 1.82 1.28 2.42.733.587 1.633.88 2.7.88.76 0 1.413-.153 1.96-.46.56-.32.98-.733 1.26-1.24l1.16.68a4.745 4.745 0 0 1-1.8 1.68c-.76.413-1.627.62-2.6.62-1.573 0-2.853-.493-3.84-1.48-.987-.987-1.48-2.24-1.48-3.76 0-1.493.486-2.74 1.46-3.74.973-1 2.227-1.5 3.76-1.5Zm0 1.28c-1.04 0-1.913.313-2.62.94-.694.613-1.107 1.413-1.24 2.4h7.46c-.133-1.053-.54-1.873-1.22-2.46a3.53 3.53 0 0 0-2.38-.88Zm17.72-1.28c1.12 0 2.02.36 2.7 1.08.693.72 1.04 1.693 1.04 2.92V218h-1.32v-6.24c0-.867-.227-1.533-.68-2-.44-.48-1.027-.72-1.76-.72-.827 0-1.5.28-2.02.84-.507.547-.76 1.407-.76 2.58V218h-1.32v-6.24c0-.88-.214-1.553-.64-2.02-.414-.467-.98-.7-1.7-.7-.8 0-1.48.28-2.04.84-.56.56-.84 1.42-.84 2.58V218h-1.32v-10h1.32v1.46c.72-1.133 1.74-1.7 3.06-1.7 1.44 0 2.453.607 3.04 1.82.72-1.213 1.8-1.82 3.24-1.82Zm11.653 0c1.426 0 2.64.507 3.64 1.52 1.013 1.013 1.52 2.253 1.52 3.72s-.507 2.707-1.52 3.72c-1 1.013-2.214 1.52-3.64 1.52-1.774 0-3.12-.733-4.04-2.2V218h-1.32v-14h1.32v5.96c.92-1.467 2.266-2.2 4.04-2.2Zm-2.9 8.06c.76.76 1.693 1.14 2.8 1.14 1.106 0 2.04-.38 2.8-1.14.76-.773 1.14-1.713 1.14-2.82 0-1.107-.38-2.04-1.14-2.8-.76-.773-1.694-1.16-2.8-1.16-1.107 0-2.04.387-2.8 1.16-.76.76-1.14 1.693-1.14 2.8 0 1.107.38 2.047 1.14 2.82Zm14.874-8.06c1.48 0 2.674.527 3.58 1.58.92 1.04 1.38 2.273 1.38 3.7 0 .147-.013.353-.04.62h-8.78c.134 1.013.56 1.82 1.28 2.42.734.587 1.634.88 2.7.88.76 0 1.414-.153 1.96-.46.56-.32.98-.733 1.26-1.24l1.16.68a4.745 4.745 0 0 1-1.8 1.68c-.76.413-1.626.62-2.6.62-1.573 0-2.853-.493-3.84-1.48-.986-.987-1.48-2.24-1.48-3.76 0-1.493.487-2.74 1.46-3.74.974-1 2.227-1.5 3.76-1.5Zm0 1.28c-1.04 0-1.913.313-2.62.94-.693.613-1.106 1.413-1.24 2.4h7.46c-.133-1.053-.54-1.873-1.22-2.46a3.529 3.529 0 0 0-2.38-.88Zm8.38.62c.613-1.213 1.667-1.82 3.16-1.82v1.28c-.907 0-1.66.267-2.26.8-.6.533-.9 1.373-.9 2.52V218h-1.32v-10h1.32v1.66Zm5.619.96c0 .453.2.813.6 1.08.4.267.886.473 1.46.62.573.147 1.146.313 1.72.5.573.173 1.06.473 1.46.9.4.413.6.96.6 1.64 0 .853-.34 1.547-1.02 2.08-.667.533-1.534.8-2.6.8-.96 0-1.78-.213-2.46-.64-.667-.427-1.134-.98-1.4-1.66l1.12-.66a2.4 2.4 0 0 0 1 1.24c.493.293 1.073.44 1.74.44.653 0 1.2-.127 1.64-.38.44-.267.66-.673.66-1.22 0-.453-.2-.813-.6-1.08-.4-.267-.887-.473-1.46-.62a41.998 41.998 0 0 1-1.72-.48 3.509 3.509 0 0 1-1.46-.9c-.4-.427-.6-.98-.6-1.66 0-.813.32-1.493.96-2.04.653-.547 1.473-.82 2.46-.82.813 0 1.526.187 2.14.56.613.36 1.066.853 1.36 1.48l-1.1.64c-.387-.933-1.187-1.4-2.4-1.4-.574 0-1.067.14-1.48.42-.414.267-.62.653-.62 1.16Zm14.382-5.02a.926.926 0 0 1-.68.28.923.923 0 0 1-.68-.28.925.925 0 0 1-.28-.68c0-.267.093-.493.28-.68a.923.923 0 0 1 .68-.28c.266 0 .493.093.68.28.186.187.28.413.28.68a.928.928 0 0 1-.28.68Zm-1.34 12.4v-10h1.32v10h-1.32Zm8.801-10.24c1.213 0 2.166.373 2.86 1.12.706.733 1.06 1.727 1.06 2.98V218h-1.32v-6.14c0-.893-.24-1.587-.72-2.08-.467-.493-1.134-.74-2-.74-.96 0-1.74.307-2.34.92-.6.6-.9 1.533-.9 2.8V218h-1.32v-10h1.32v1.56c.746-1.2 1.866-1.8 3.36-1.8Zm20.072.24h1.32v10h-1.32v-1.96c-.92 1.467-2.267 2.2-4.04 2.2-1.427 0-2.647-.507-3.66-1.52-1-1.013-1.5-2.253-1.5-3.72s.5-2.707 1.5-3.72c1.013-1.013 2.233-1.52 3.66-1.52 1.773 0 3.12.733 4.04 2.2V208Zm-6.74 7.82c.76.76 1.693 1.14 2.8 1.14 1.107 0 2.04-.38 2.8-1.14.76-.773 1.14-1.713 1.14-2.82 0-1.107-.38-2.04-1.14-2.8-.76-.773-1.693-1.16-2.8-1.16-1.107 0-2.04.387-2.8 1.16-.76.76-1.14 1.693-1.14 2.8 0 1.107.38 2.047 1.14 2.82Zm21.155-6.54h-2.88v6.06c0 .547.107.94.32 1.18.213.227.533.347.96.36.427 0 .96-.013 1.6-.04V218c-1.4.213-2.453.113-3.16-.3-.693-.413-1.04-1.2-1.04-2.36v-6.06h-2.1V208h2.1v-2.4l1.32-.4v2.8h2.88v1.28Zm6.88-1.52c1.213 0 2.167.373 2.86 1.12.707.733 1.06 1.727 1.06 2.98V218h-1.32v-6.14c0-.893-.24-1.587-.72-2.08-.467-.493-1.133-.74-2-.74-.96 0-1.74.307-2.34.92-.6.6-.9 1.533-.9 2.8V218h-1.32v-14h1.32v5.56c.747-1.2 1.867-1.8 3.36-1.8Zm7.792 1.9c.614-1.213 1.667-1.82 3.16-1.82v1.28c-.906 0-1.66.267-2.26.8-.6.533-.9 1.373-.9 2.52V218h-1.32v-10h1.32v1.66Zm6.309-4.06a.923.923 0 0 1-.68.28.926.926 0 0 1-.68-.28.928.928 0 0 1-.28-.68c0-.267.094-.493.28-.68a.926.926 0 0 1 .68-.28c.267 0 .494.093.68.28.187.187.28.413.28.68a.925.925 0 0 1-.28.68Zm-1.34 12.4v-10h1.32v10h-1.32Zm11.321-10h1.4l-4.1 10h-1.6l-4.1-10h1.4l3.5 8.62 3.5-8.62Zm4.336-2.4a.926.926 0 0 1-.68.28.923.923 0 0 1-.68-.28.925.925 0 0 1-.28-.68c0-.267.093-.493.28-.68a.923.923 0 0 1 .68-.28c.266 0 .493.093.68.28.186.187.28.413.28.68a.928.928 0 0 1-.28.68Zm-1.34 12.4v-10h1.32v10h-1.32Zm8.801-10.24c1.213 0 2.166.373 2.86 1.12.706.733 1.06 1.727 1.06 2.98V218h-1.32v-6.14c0-.893-.24-1.587-.72-2.08-.467-.493-1.134-.74-2-.74-.96 0-1.74.307-2.34.92-.6.6-.9 1.533-.9 2.8V218h-1.32v-10h1.32v1.56c.746-1.2 1.866-1.8 3.36-1.8Zm15.072.24h1.32v9.6c0 1.44-.493 2.573-1.48 3.4s-2.167 1.24-3.54 1.24c-2.347 0-3.927-.813-4.74-2.44l1.16-.66c.6 1.213 1.793 1.82 3.58 1.82 1.147 0 2.047-.307 2.7-.92.667-.6 1-1.413 1-2.44v-1.56c-.92 1.467-2.267 2.2-4.04 2.2-1.427 0-2.647-.507-3.66-1.52-1-1.013-1.5-2.253-1.5-3.72s.5-2.707 1.5-3.72c1.013-1.013 2.233-1.52 3.66-1.52 1.773 0 3.12.733 4.04 2.2V208Zm-6.74 7.82c.76.76 1.693 1.14 2.8 1.14 1.107 0 2.04-.38 2.8-1.14.76-.773 1.14-1.713 1.14-2.82 0-1.107-.38-2.04-1.14-2.8-.76-.773-1.693-1.16-2.8-1.16-1.107 0-2.04.387-2.8 1.16-.76.76-1.14 1.693-1.14 2.8 0 1.107.38 2.047 1.14 2.82Zm-157.2 27.42c-1.507 0-2.76-.5-3.76-1.5-1-1.013-1.5-2.26-1.5-3.74 0-1.48.5-2.72 1.5-3.72 1-1.013 2.254-1.52 3.76-1.52.987 0 1.874.24 2.66.72.787.467 1.36 1.1 1.72 1.9l-1.08.62c-.266-.6-.7-1.073-1.3-1.42-.587-.36-1.253-.54-2-.54-1.106 0-2.04.387-2.8 1.16-.76.76-1.14 1.693-1.14 2.8 0 1.107.38 2.047 1.14 2.82.76.76 1.694 1.14 2.8 1.14.747 0 1.413-.173 2-.52a3.866 3.866 0 0 0 1.38-1.44l1.1.64a4.624 4.624 0 0 1-1.82 1.9c-.8.467-1.686.7-2.66.7Zm7.695-8.58c.614-1.213 1.667-1.82 3.16-1.82v1.28c-.906 0-1.66.267-2.26.8-.6.533-.9 1.373-.9 2.52V243h-1.32v-10h1.32v1.66Zm8.984-1.9c1.48 0 2.673.527 3.58 1.58.92 1.04 1.38 2.273 1.38 3.7 0 .147-.013.353-.04.62h-8.78c.133 1.013.56 1.82 1.28 2.42.733.587 1.633.88 2.7.88.76 0 1.413-.153 1.96-.46.56-.32.98-.733 1.26-1.24l1.16.68a4.745 4.745 0 0 1-1.8 1.68c-.76.413-1.627.62-2.6.62-1.573 0-2.853-.493-3.84-1.48-.987-.987-1.48-2.24-1.48-3.76 0-1.493.487-2.74 1.46-3.74s2.227-1.5 3.76-1.5Zm0 1.28c-1.04 0-1.913.313-2.62.94-.693.613-1.107 1.413-1.24 2.4h7.46c-.133-1.053-.54-1.873-1.22-2.46a3.529 3.529 0 0 0-2.38-.88Zm15.66-1.04h1.32v10h-1.32v-1.96c-.92 1.467-2.267 2.2-4.04 2.2-1.427 0-2.647-.507-3.66-1.52-1-1.013-1.5-2.253-1.5-3.72s.5-2.707 1.5-3.72c1.013-1.013 2.233-1.52 3.66-1.52 1.773 0 3.12.733 4.04 2.2V233Zm-6.74 7.82c.76.76 1.693 1.14 2.8 1.14 1.106 0 2.04-.38 2.8-1.14.76-.773 1.14-1.713 1.14-2.82 0-1.107-.38-2.04-1.14-2.8-.76-.773-1.694-1.16-2.8-1.16-1.107 0-2.04.387-2.8 1.16-.76.76-1.14 1.693-1.14 2.8 0 1.107.38 2.047 1.14 2.82Zm16.154-6.54h-2.88v6.06c0 .547.107.94.32 1.18.214.227.534.347.96.36.427 0 .96-.013 1.6-.04V243c-1.4.213-2.453.113-3.16-.3-.693-.413-1.04-1.2-1.04-2.36v-6.06h-2.1V233h2.1v-2.4l1.32-.4v2.8h2.88v1.28Zm9.975 7.46c-1.013 1-2.253 1.5-3.72 1.5s-2.713-.5-3.74-1.5c-1.013-1.013-1.52-2.26-1.52-3.74 0-1.48.507-2.72 1.52-3.72 1.027-1.013 2.273-1.52 3.74-1.52s2.707.507 3.72 1.52c1.027 1 1.54 2.24 1.54 3.72s-.513 2.727-1.54 3.74Zm-6.52-.92c.76.76 1.693 1.14 2.8 1.14 1.107 0 2.04-.38 2.8-1.14.76-.773 1.14-1.713 1.14-2.82 0-1.107-.38-2.04-1.14-2.8-.76-.773-1.693-1.16-2.8-1.16-1.107 0-2.04.387-2.8 1.16-.76.76-1.14 1.693-1.14 2.8 0 1.107.38 2.047 1.14 2.82Zm11.589-6.16c.613-1.213 1.667-1.82 3.16-1.82v1.28c-.907 0-1.66.267-2.26.8-.6.533-.9 1.373-.9 2.52V243h-1.32v-10h1.32v1.66Zm14.629 8.58c-1.507 0-2.76-.5-3.76-1.5-1-1.013-1.5-2.26-1.5-3.74 0-1.48.5-2.72 1.5-3.72 1-1.013 2.253-1.52 3.76-1.52.987 0 1.873.24 2.66.72.787.467 1.36 1.1 1.72 1.9l-1.08.62c-.267-.6-.7-1.073-1.3-1.42-.587-.36-1.253-.54-2-.54-1.107 0-2.04.387-2.8 1.16-.76.76-1.14 1.693-1.14 2.8 0 1.107.38 2.047 1.14 2.82.76.76 1.693 1.14 2.8 1.14.747 0 1.413-.173 2-.52a3.86 3.86 0 0 0 1.38-1.44l1.1.64a4.621 4.621 0 0 1-1.82 1.9c-.8.467-1.687.7-2.66.7Zm14.657-1.5c-1.013 1-2.253 1.5-3.72 1.5-1.466 0-2.713-.5-3.74-1.5-1.013-1.013-1.52-2.26-1.52-3.74 0-1.48.507-2.72 1.52-3.72 1.027-1.013 2.274-1.52 3.74-1.52 1.467 0 2.707.507 3.72 1.52 1.027 1 1.54 2.24 1.54 3.72s-.513 2.727-1.54 3.74Zm-6.52-.92c.76.76 1.694 1.14 2.8 1.14 1.107 0 2.04-.38 2.8-1.14.76-.773 1.14-1.713 1.14-2.82 0-1.107-.38-2.04-1.14-2.8-.76-.773-1.693-1.16-2.8-1.16-1.106 0-2.04.387-2.8 1.16-.76.76-1.14 1.693-1.14 2.8 0 1.107.38 2.047 1.14 2.82Zm20.929-8.06c1.12 0 2.02.36 2.7 1.08.694.72 1.04 1.693 1.04 2.92V243h-1.32v-6.24c0-.867-.226-1.533-.68-2-.44-.48-1.026-.72-1.76-.72-.826 0-1.5.28-2.02.84-.506.547-.76 1.407-.76 2.58V243h-1.32v-6.24c0-.88-.213-1.553-.64-2.02-.413-.467-.98-.7-1.7-.7-.8 0-1.48.28-2.04.84-.56.56-.84 1.42-.84 2.58V243h-1.32v-10h1.32v1.46c.72-1.133 1.74-1.7 3.06-1.7 1.44 0 2.454.607 3.04 1.82.72-1.213 1.8-1.82 3.24-1.82Zm16.953 0c1.12 0 2.02.36 2.7 1.08.694.72 1.04 1.693 1.04 2.92V243h-1.32v-6.24c0-.867-.226-1.533-.68-2-.44-.48-1.026-.72-1.76-.72-.826 0-1.5.28-2.02.84-.506.547-.76 1.407-.76 2.58V243h-1.32v-6.24c0-.88-.213-1.553-.64-2.02-.413-.467-.98-.7-1.7-.7-.8 0-1.48.28-2.04.84-.56.56-.84 1.42-.84 2.58V243h-1.32v-10h1.32v1.46c.72-1.133 1.74-1.7 3.06-1.7 1.44 0 2.454.607 3.04 1.82.72-1.213 1.8-1.82 3.24-1.82Zm13.334.24h1.32v10h-1.32v-1.56c-.747 1.2-1.867 1.8-3.36 1.8-1.214 0-2.174-.367-2.88-1.1-.694-.747-1.04-1.747-1.04-3V233h1.32v6.14c0 .893.233 1.587.7 2.08.48.493 1.153.74 2.02.74.96 0 1.74-.3 2.34-.9.6-.613.9-1.553.9-2.82V233Zm8.792-.24c1.213 0 2.167.373 2.86 1.12.707.733 1.06 1.727 1.06 2.98V243h-1.32v-6.14c0-.893-.24-1.587-.72-2.08-.467-.493-1.133-.74-2-.74-.96 0-1.74.307-2.34.92-.6.6-.9 1.533-.9 2.8V243h-1.32v-10h1.32v1.56c.747-1.2 1.867-1.8 3.36-1.8Zm7.812-2.16a.923.923 0 0 1-.68.28.926.926 0 0 1-.68-.28.928.928 0 0 1-.28-.68c0-.267.094-.493.28-.68a.926.926 0 0 1 .68-.28c.267 0 .494.093.68.28.187.187.28.413.28.68a.925.925 0 0 1-.28.68Zm-1.34 12.4v-10h1.32v10h-1.32Zm9.421-8.72h-2.88v6.06c0 .547.107.94.32 1.18.214.227.534.347.96.36.427 0 .96-.013 1.6-.04V243c-1.4.213-2.453.113-3.16-.3-.693-.413-1.04-1.2-1.04-2.36v-6.06h-2.1V233h2.1v-2.4l1.32-.4v2.8h2.88v1.28Zm9.596-1.28h1.4l-4.28 10.92c-.387.987-.94 1.76-1.66 2.32-.707.573-1.5.827-2.38.76v-1.24c1.2.133 2.113-.56 2.74-2.08l.26-.62-4.48-10.06h1.4l3.76 8.38 3.24-8.38Z"/>
  <g clip-path="url(#a)">
    <path fill="#E0E0E0" d="M96.364 52.609a36.424 36.424 0 0 0-23.318-10.526 36.464 36.464 0 0 0-24.503 7.387 36.167 36.167 0 0 0-13.535 21.635 36.049 36.049 0 0 0 4.148 25.151L34 115.001l19.268-5.03a36.45 36.45 0 0 0 17.37 4.403h.015a36.455 36.455 0 0 0 20.19-6.098 36.215 36.215 0 0 0 13.387-16.235 36.029 36.029 0 0 0 2.073-20.904 36.137 36.137 0 0 0-9.94-18.528Zm-25.711 55.656h-.012c-5.41 0-10.72-1.447-15.376-4.192l-1.104-.651-11.435 2.984 3.053-11.096-.72-1.137a29.969 29.969 0 0 1 3.645-36.658 30.255 30.255 0 0 1 17.312-9.05 30.327 30.327 0 0 1 19.253 3.401 30.124 30.124 0 0 1 13.128 14.427A29.953 29.953 0 0 1 99.902 85.7a30.065 30.065 0 0 1-10.75 16.26 30.296 30.296 0 0 1-18.501 6.301l.002.003Z"/>
    <path fill="url(#b)" d="m35.668 112.92 4.921-17.89a34.404 34.404 0 0 1-4.334-21.774 34.475 34.475 0 0 1 9.874-19.902 34.747 34.747 0 0 1 20.002-9.807 34.818 34.818 0 0 1 21.866 4.339 34.58 34.58 0 0 1 14.696 16.692 34.388 34.388 0 0 1 1.455 22.15 34.527 34.527 0 0 1-12.389 18.455 34.79 34.79 0 0 1-21.113 7.136h-.015a34.806 34.806 0 0 1-16.572-4.201l-18.388 4.799-.003.003Z"/>
    <path fill="#fff" fill-rule="evenodd" d="M61.671 62.814c-.672-1.488-1.38-1.518-2.02-1.544-.524-.022-1.123-.02-1.72-.02a3.314 3.314 0 0 0-2.395 1.118 10.018 10.018 0 0 0-2.36 3.397 9.98 9.98 0 0 0-.782 4.056c0 4.398 3.217 8.647 3.666 9.243.449.597 6.21 9.909 15.336 13.49 7.583 2.978 9.127 2.385 10.773 2.237 1.646-.15 5.311-2.162 6.06-4.249.749-2.087.748-3.876.523-4.25-.224-.373-.822-.595-1.72-1.043-.899-.447-5.312-2.61-6.135-2.907-.824-.298-1.422-.447-2.02.448-.599.895-2.318 2.906-2.843 3.504-.524.598-1.047.672-1.945.225a24.576 24.576 0 0 1-7.22-4.436 26.943 26.943 0 0 1-4.993-6.189c-.524-.893-.057-1.378.394-1.825.403-.4.898-1.043 1.347-1.565.369-.451.67-.953.897-1.49a1.639 1.639 0 0 0-.073-1.565c-.227-.448-1.972-4.867-2.77-6.635Z" clip-rule="evenodd"/>
    <path fill="#fff" d="M96.067 52.493a36.002 36.002 0 0 0-23.05-10.415 36.042 36.042 0 0 0-24.229 7.3 35.75 35.75 0 0 0-13.38 21.392 35.633 35.633 0 0 0 4.108 24.866l-5.097 18.533 19.047-4.972a36.04 36.04 0 0 0 17.17 4.353h.015a36.053 36.053 0 0 0 19.96-6.026 35.814 35.814 0 0 0 13.236-16.05 35.623 35.623 0 0 0 2.048-20.665 35.723 35.723 0 0 0-9.828-18.316ZM70.65 107.51h-.008a29.922 29.922 0 0 1-15.2-4.143l-1.092-.644-11.305 2.95 3.017-10.97-.71-1.125a29.626 29.626 0 0 1 3.604-36.238 29.909 29.909 0 0 1 17.114-8.945 29.98 29.98 0 0 1 19.032 3.362A29.78 29.78 0 0 1 98.08 66.02a29.608 29.608 0 0 1 1.487 19.186A29.725 29.725 0 0 1 88.94 101.28a29.955 29.955 0 0 1-18.29 6.228v.003Z"/>
  </g>
  <defs>
    <linearGradient id="b" x1="70.499" x2="70.499" y1="112.92" y2="43.253" gradientUnits="userSpaceOnUse">
      <stop stop-color="#20B038"/>
      <stop offset="1" stop-color="#60D66A"/>
    </linearGradient>
    <clipPath id="a">
      <path fill="#fff" d="M34 42h73v73H34z"/>
    </clipPath>
  </defs>
</svg>